<?xml version="1.0" standalone="no"?>
<!DOCTYPE svg PUBLIC "-//W3C//DTD SVG 20010904//EN"
 "http://www.w3.org/TR/2001/REC-SVG-20010904/DTD/svg10.dtd">
<svg version="1.0" xmlns="http://www.w3.org/2000/svg"
 width="512.000000pt" height="512.000000pt" viewBox="0 0 512.000000 512.000000"
 preserveAspectRatio="xMidYMid meet">

<g transform="translate(0.000000,512.000000) scale(0.100000,-0.100000)"
fill="#000000" stroke="none">
<path d="M550 5110 c-135 -24 -242 -82 -351 -190 -71 -69 -94 -101 -127 -170
-163 -339 -31 -726 303 -891 107 -53 204 -72 325 -66 172 10 302 68 426 192
140 139 199 279 199 470 0 192 -59 332 -200 472 -65 64 -100 90 -166 121 -130
63 -277 85 -409 62z m240 -315 c156 -54 260 -231 233 -391 -38 -222 -240 -356
-451 -300 -194 52 -310 249 -258 441 7 28 21 65 30 84 23 44 103 124 147 147
85 44 205 52 299 19z"/>
<path d="M10 1785 l0 -1785 660 0 660 0 0 1785 0 1785 -660 0 -660 0 0 -1785z
m1020 0 l0 -1485 -360 0 -360 0 0 1485 0 1485 360 0 360 0 0 -1485z"/>
<path d="M1780 1785 l0 -1785 678 0 679 0 6 742 c4 409 7 892 7 1075 l0 332
71 22 c103 31 213 24 301 -19 126 -62 208 -159 262 -312 l31 -85 3 -877 3
-878 650 0 650 0 -4 1168 c-3 1149 -3 1168 -24 1252 -71 283 -208 519 -415
715 -192 182 -431 309 -692 367 -87 20 -128 23 -296 22 -212 0 -288 -12 -467
-75 l-83 -28 0 74 0 75 -680 0 -680 0 0 -1785z m1062 1310 l3 -174 120 70
c230 136 343 184 514 219 598 122 1212 -290 1325 -889 14 -72 16 -210 16
-1052 l0 -969 -350 0 -350 0 0 703 c0 743 -2 777 -48 922 -85 265 -280 465
-527 541 -85 26 -305 26 -390 0 -88 -27 -156 -59 -235 -110 l-70 -46 0 -517
c0 -285 -3 -737 -7 -1006 l-6 -487 -379 0 -378 0 0 1485 0 1485 380 0 380 0 2
-175z"/>
</g>
</svg>
